<!DOCTYPE svg PUBLIC "-//W3C//DTD SVG 1.1//EN" "http://www.w3.org/Graphics/SVG/1.1/DTD/svg11.dtd">
<!-- Uploaded to: SVG Repo, www.svgrepo.com, Transformed by: SVG Repo Mixer Tools -->
<svg version="1.1" id="Icons" xmlns="http://www.w3.org/2000/svg" xmlns:xlink="http://www.w3.org/1999/xlink" viewBox="0 0 32 32" xml:space="preserve" width="800px" height="800px" fill="#f60404" stroke="#f60404">
<g id="SVGRepo_bgCarrier" stroke-width="0"/>
<g id="SVGRepo_tracerCarrier" stroke-linecap="round" stroke-linejoin="round" stroke="#CCCCCC" stroke-width="0.32"/>
<g id="SVGRepo_iconCarrier"> <style type="text/css"> .st0{fill:none;stroke:#f50505;stroke-width:0.00032;stroke-linecap:round;stroke-linejoin:round;stroke-miterlimit:10;} </style> <path d="M18,18h-1v-1c0-0.6-0.4-1-1-1s-1,0.4-1,1v1h-1c-0.6,0-1,0.4-1,1s0.4,1,1,1h1v1c0,0.6,0.4,1,1,1s1-0.4,1-1v-1h1 c0.6,0,1-0.4,1-1S18.6,18,18,18z"/> <path d="M25,8h-3V7c0-2.8-2.2-5-5-5h-2c-2.8,0-5,2.2-5,5v1H7c-2.8,0-5,2.2-5,5v12c0,2.8,2.2,5,5,5h18c2.8,0,5-2.2,5-5V13 C30,10.2,27.8,8,25,8z M12,7c0-1.7,1.3-3,3-3h2c1.7,0,3,1.3,3,3v1h-8V7z M16,26c-3.9,0-7-3.1-7-7s3.1-7,7-7s7,3.1,7,7S19.9,26,16,26 z"/> </g>
</svg>