<?xml version="1.0" encoding="utf-8"?><!-- Uploaded to: SVG Repo, www.svgrepo.com, Generator: SVG Repo Mixer Tools -->
<svg fill="#000000" width="800px" height="800px" viewBox="0 0 24 24" id="winner" data-name="Flat Color" xmlns="http://www.w3.org/2000/svg" class="icon flat-color"><path id="secondary" d="M11.07,6.81a1,1,0,0,0,.47-.12L12,6.45l.46.24a1,1,0,0,0,1.45-1.05l-.09-.51.38-.37a1,1,0,0,0-.56-1.7L13.13,3l-.23-.47a1,1,0,0,0-1.8,0L10.87,3l-.51.08a1,1,0,0,0-.56,1.7l.38.36-.09.52a1,1,0,0,0,.39,1A1.09,1.09,0,0,0,11.07,6.81Z" style="fill: rgb(44, 169, 188);"></path><path id="primary" d="M17,15h4a1,1,0,0,1,1,1v5a1,1,0,0,1-1,1H17a1,1,0,0,1-1-1V16A1,1,0,0,1,17,15ZM9,10V21a1,1,0,0,0,1,1h4a1,1,0,0,0,1-1V10a1,1,0,0,0-1-1H10A1,1,0,0,0,9,10ZM2,14v7a1,1,0,0,0,1,1H7a1,1,0,0,0,1-1V14a1,1,0,0,0-1-1H3A1,1,0,0,0,2,14Z" style="fill: rgb(0, 0, 0);"></path></svg>